<svg xmlns="http://www.w3.org/2000/svg" width="64" height="64" fill="none" viewBox="0 0 64 64"><g clip-path="url(#a)"><path fill="url(#b)" d="M52 0H12C5.373 0 0 5.373 0 12v40c0 6.627 5.373 12 12 12h40c6.627 0 12-5.373 12-12V12c0-6.627-5.373-12-12-12"/><path fill="#fff" d="M32 22a4 4 0 1 0 0-8 4 4 0 0 0 0 8"/><path stroke="#fff" stroke-linecap="round" stroke-width="3" d="m20 26 12 4 12-4"/><path stroke="#fff" stroke-linecap="round" stroke-linejoin="round" stroke-width="3" d="M32 30v15.75m0 0L24 51m8-5.25L40 51"/></g><defs><linearGradient id="b" x1="0" x2="4096" y1="0" y2="4096" gradientUnits="userSpaceOnUse"><stop stop-color="#1680EB"/><stop offset="1" stop-color="#171AEB"/></linearGradient><clipPath id="a"><path fill="#fff" d="M0 0h64v64H0z"/></clipPath></defs></svg>