<svg width="64" height="64" viewBox="0 0 64 64" fill="none" xmlns="http://www.w3.org/2000/svg">
<g clip-path="url(#clip0_313_20)">
<path d="M52 0H12C5.37258 0 0 5.37258 0 12V52C0 58.6274 5.37258 64 12 64H52C58.6274 64 64 58.6274 64 52V12C64 5.37258 58.6274 0 52 0Z" fill="url(#paint0_linear_313_20)"/>
<path d="M32 22C34.2091 22 36 20.2091 36 18C36 15.7909 34.2091 14 32 14C29.7909 14 28 15.7909 28 18C28 20.2091 29.7909 22 32 22Z" fill="white"/>
<path d="M20 26L32 30L44 26" stroke="white" stroke-width="3" stroke-linecap="round"/>
<path d="M32 30V45.75M32 45.75L24 51M32 45.75L40 51" stroke="white" stroke-width="3" stroke-linecap="round" stroke-linejoin="round"/>
</g>
<defs>
<linearGradient id="paint0_linear_313_20" x1="0" y1="0" x2="4096" y2="4096" gradientUnits="userSpaceOnUse">
<stop stop-color="#1680EB"/>
<stop offset="1" stop-color="#171AEB"/>
</linearGradient>
<clipPath id="clip0_313_20">
<rect width="64" height="64" fill="white"/>
</clipPath>
</defs>
</svg>
