<svg xmlns="http://www.w3.org/2000/svg" width="1142" height="240" fill="none" style="color-scheme:light dark" viewBox="0 0 1142 240"><g transform="translate(0 30)scale(2.8125)"><g clip-path="url(#a)"><path fill="url(#b)" d="M52 0H12C5.373 0 0 5.373 0 12v40c0 6.627 5.373 12 12 12h40c6.627 0 12-5.373 12-12V12c0-6.627-5.373-12-12-12"/><path fill="#fff" d="M32 22a4 4 0 1 0 0-8 4 4 0 0 0 0 8"/><path stroke="#fff" stroke-linecap="round" stroke-width="3" d="m20 26 12 4 12-4"/><path stroke="#fff" stroke-linecap="round" stroke-linejoin="round" stroke-width="3" d="M32 30v15.75m0 0L24 51m8-5.25L40 51"/><path fill="#FFD54F" d="m54 18 1 2 2 1-2 1-1 2-1-2-2-1 2-1zm-8-6 1 1.5 1.5.5-1.5.5-1 1.5-1-1.5-1.5-.5 1.5-.5zm8 17 .5 1 1 .5-1 .5-.5 1-.5-1-1-.5 1-.5z"/></g><defs><linearGradient id="b" x1="0" x2="4096" y1="0" y2="4096" gradientUnits="userSpaceOnUse"><stop stop-color="#66BB6A"/><stop offset="1" stop-color="#43A047"/></linearGradient><clipPath id="a"><path fill="#fff" d="M0 0h64v64H0z"/></clipPath></defs></g><text x="216" y="150" fill="#E6EDF7" font-size="86" font-weight="700" letter-spacing="-.02em" style="font-family:&quot;Space Grotesk&quot;,&quot;Sora&quot;,&quot;IBM Plex Sans&quot;,sans-serif">a11y-safe-autofix</text></svg>