<svg xmlns="http://www.w3.org/2000/svg" width="1280" height="640" fill="none" style="color-scheme:light dark" viewBox="0 0 1280 640"><style>text{font-family:&quot;Space Grotesk&quot;,&quot;Sora&quot;,&quot;IBM Plex Sans&quot;,sans-serif}</style><defs><linearGradient id="edge" x1="0" x2="1" y1="0" y2="1"><stop offset="0" stop-color="#F59E0B" stop-opacity=".18"/><stop offset="1" stop-color="#F59E0B" stop-opacity="0"/></linearGradient></defs><path fill="#0B0D12" d="M0 0h1280v640H0z"/><path fill="url(#edge)" d="M0 0h1280v640H0z"/><path stroke="#1F2A37" d="M80 0v640M160 0v640M240 0v640M320 0v640M400 0v640M480 0v640M560 0v640M640 0v640M720 0v640M800 0v640M880 0v640M960 0v640m80-640v640m80-640v640m80-640v640M0 80h1280M0 160h1280M0 240h1280M0 320h1280M0 400h1280M0 480h1280M0 560h1280" opacity=".22"/><g transform="translate(140 200)scale(3.75)"><g clip-path="url(#clip0_313_20)"><path fill="url(#paint0_linear_313_20)" d="M52 0H12C5.373 0 0 5.373 0 12v40c0 6.627 5.373 12 12 12h40c6.627 0 12-5.373 12-12V12c0-6.627-5.373-12-12-12"/><path fill="#fff" d="M32 22a4 4 0 1 0 0-8 4 4 0 0 0 0 8"/><path stroke="#fff" stroke-linecap="round" stroke-width="3" d="m20 26 12 4 12-4"/><path stroke="#fff" stroke-linecap="round" stroke-linejoin="round" stroke-width="3" d="M32 30v15.75m0 0L24 51m8-5.25L40 51"/><path fill="#FFD54F" d="m54 18 1 2 2 1-2 1-1 2-1-2-2-1 2-1zm-8-6 1 1.5 1.5.5-1.5.5-1 1.5-1-1.5-1.5-.5 1.5-.5zm8 17 .5 1 1 .5-1 .5-.5 1-.5-1-1-.5 1-.5z"/></g><defs><linearGradient id="paint0_linear_313_20" x1="0" x2="4096" y1="0" y2="4096" gradientUnits="userSpaceOnUse"><stop stop-color="#66BB6A"/><stop offset="1" stop-color="#43A047"/></linearGradient><clipPath id="clip0_313_20"><path fill="#fff" d="M0 0h64v64H0z"/></clipPath></defs></g><text x="520" y="270" fill="#E6EDF7" font-size="60" font-weight="700" letter-spacing="-.02em">a11y-safe-autofix</text><text x="520" y="355" fill="#9AA8BD" font-size="26">Dry-run safe fixes, then apply</text><text x="520" y="387" fill="#9AA8BD" font-size="26">deterministic changes.</text><g transform="translate(520 420)"><rect width="196" height="40" fill="#111827" stroke="#263142" rx="20"/><text x="98" y="20" fill="#E6EDF7" dominant-baseline="middle" font-size="22" text-anchor="middle">Dry-run default</text></g><g transform="translate(730 420)"><rect width="138" height="40" fill="#111827" stroke="#263142" rx="20"/><text x="69" y="20" fill="#E6EDF7" dominant-baseline="middle" font-size="22" text-anchor="middle">Safe fixes</text></g><rect width="200" height="12" x="980" y="460" fill="#F59E0B" fill-opacity=".25" rx="6"/><rect width="160" height="12" x="980" y="488" fill="#F59E0B" fill-opacity=".35" rx="6"/></svg>